<svg width="97" height="8"  xmlns="http://www.w3.org/2000/svg" viewBox="0 0 241.72 49.22"><defs><style>.cls-1{fill:#c4c4c4;}</style></defs><g id="Layer_2" data-name="Layer 2"><g id="Layer_1-2" data-name="Layer 1"><path class="cls-1" d="M22.07,3a3.32,3.32,0,0,0-1,.61,2.08,2.08,0,0,0-.47.76,5.55,5.55,0,0,0-.27,1.38c-.05.61-.08,1.55-.08,2.83v24c0,1.24,0,2.15.07,2.72a5.85,5.85,0,0,0,.23,1.37,2.19,2.19,0,0,0,.48.83,3.45,3.45,0,0,0,1,.66v1.36H15.64V38.13a2.69,2.69,0,0,0,1.22-.88,3.4,3.4,0,0,0,.46-1.48,26.7,26.7,0,0,0,.13-3.22V21.92q0-4.19.07-8.48c0-2.86.1-4.82.16-5.87h-.26L11.31,35.08H9.54l-5.67-28H3.61q.08,1.69.14,6.14c0,3,.07,6,.07,9.13V32.55c0,1.24,0,2.15.07,2.72a7.13,7.13,0,0,0,.23,1.37,2.19,2.19,0,0,0,.48.83,3.39,3.39,0,0,0,1,.66v1.36H0V38.13a2.8,2.8,0,0,0,1.28-1,3.64,3.64,0,0,0,.42-1.54c.07-.67.1-1.69.1-3.06v-24c0-1.28,0-2.21-.07-2.79a5.85,5.85,0,0,0-.26-1.36A2.14,2.14,0,0,0,1,3.61,4.19,4.19,0,0,0,0,3V1.6H5.5l5.41,27,5.95-27h5.21Z"/><path class="cls-1" d="M36.21,39.49V38.13a3.33,3.33,0,0,0,1.14-.61,2,2,0,0,0,.57-.93A5.65,5.65,0,0,0,38.1,35,18.8,18.8,0,0,0,38,33q-.12-1.1-.36-2.46l-.57-3.58H29.87l-.52,2.72c-.27,1.37-.45,2.41-.53,3.11a17,17,0,0,0-.12,1.91,5,5,0,0,0,.47,2.45,2.21,2.21,0,0,0,1.44,1v1.36H24V38.13c.57-.16,1.08-.76,1.5-1.8a26.22,26.22,0,0,0,1.24-4.44L33.2,1.15h2.44l5.24,31c.24,1.44.46,2.54.65,3.3a6.23,6.23,0,0,0,.69,1.78,2.32,2.32,0,0,0,1.09.94v1.36Zm-5.92-15h6.44L33.8,6.6Z"/><path class="cls-1" d="M48.64,36.94h5.57a2.62,2.62,0,0,0,1.53-.35,2.47,2.47,0,0,0,.83-1.08,10.37,10.37,0,0,0,.58-2.07c.18-.89.39-2.26.63-4.13h1.51V39.49H45.05V38.13l10.56-34H50a2.09,2.09,0,0,0-1,.18,1.93,1.93,0,0,0-.63.56A4.67,4.67,0,0,0,47.9,6a14.6,14.6,0,0,0-.54,2q-.27,1.26-.57,3.15H45.28V1.6H59.19V2.93Z"/><path class="cls-1" d="M76.85,1.6V10H75.34c-.15-.9-.31-1.7-.48-2.38a13.24,13.24,0,0,0-.51-1.73,4.09,4.09,0,0,0-.58-1.11A1.75,1.75,0,0,0,73,4.19,3.15,3.15,0,0,0,72,4H67.12V18.59h3.3a1.55,1.55,0,0,0,1.07-.35,2.63,2.63,0,0,0,.64-1.18,16.82,16.82,0,0,0,.48-2.61h1.45V25.11H72.61a15.13,15.13,0,0,0-.48-2.51,2.94,2.94,0,0,0-.62-1.21A1.48,1.48,0,0,0,70.42,21h-3.3v16h4.8a2.82,2.82,0,0,0,1.22-.23A2,2,0,0,0,74,36a6,6,0,0,0,.6-1.48A19,19,0,0,0,75,32.62c.12-.65.28-1.61.49-2.87H77l-.29,9.74H62.44V38.13a2.8,2.8,0,0,0,1.28-1,4,4,0,0,0,.42-1.54c.07-.67.1-1.69.1-3.06v-24c0-1.28,0-2.21-.07-2.79a5.85,5.85,0,0,0-.26-1.36,2.14,2.14,0,0,0-.47-.78,4.19,4.19,0,0,0-1-.65V1.6Z"/><path class="cls-1" d="M93,24.48q.56,1.66.93,2.91c.26.83.52,1.77.78,2.8h.2c0-1.12-.09-3.37-.14-6.73s-.06-6.39-.06-9.09V8.54c0-1.28,0-2.21-.06-2.8a5.38,5.38,0,0,0-.22-1.36A2.06,2.06,0,0,0,94,3.61,4.09,4.09,0,0,0,93,3V1.6h5.55V3a3.81,3.81,0,0,0-1,.61,2.19,2.19,0,0,0-.47.72,6.21,6.21,0,0,0-.27,1.33c-.06.6-.09,1.57-.09,2.92V39.66H94.78L86.19,13.73c-.53-1.61-.91-2.78-1.14-3.52s-.44-1.48-.63-2.2h-.26c.07,1.43.12,4,.15,7.73s0,7.45,0,11.15v5.66c0,1.24,0,2.15.07,2.72a5.85,5.85,0,0,0,.23,1.37,2,2,0,0,0,.47.83,3.66,3.66,0,0,0,1,.66v1.36H80.53V38.13a2.74,2.74,0,0,0,1.28-1,3.78,3.78,0,0,0,.43-1.54c.06-.67.1-1.69.1-3.06v-24c0-1.28,0-2.21-.08-2.79A5.93,5.93,0,0,0,82,4.39a2.28,2.28,0,0,0-.47-.78,4.3,4.3,0,0,0-1-.65V1.6h4.83Z"/><path class="cls-1" d="M119.05,36.45a30.29,30.29,0,0,1-.49,6.08,10.14,10.14,0,0,1-1.63,3.94,9.41,9.41,0,0,1-3.21,2.75l-.51-2.44a6.7,6.7,0,0,0,1.93-1.9,6.91,6.91,0,0,0,.79-2.4,26.67,26.67,0,0,0,.22-3.89V7.38a26.49,26.49,0,0,0-.13-3.3,3.63,3.63,0,0,0-.43-1.36,3,3,0,0,0-1.24-.92V.44h6.5V1.8a3.32,3.32,0,0,0-1,.62,2,2,0,0,0-.47.76,5,5,0,0,0-.26,1.37c-.06.61-.09,1.56-.09,2.83Z"/><path class="cls-1" d="M134.05,38.34V37a3.9,3.9,0,0,0,1.15-.61,2,2,0,0,0,.56-.93,5.73,5.73,0,0,0,.18-1.6,18.8,18.8,0,0,0-.12-2c-.08-.73-.2-1.55-.35-2.46l-.58-3.58h-7.18l-.52,2.72c-.27,1.37-.44,2.41-.53,3.11a17.31,17.31,0,0,0-.12,1.92A4.91,4.91,0,0,0,127,36a2.25,2.25,0,0,0,1.44,1v1.36h-6.58V37c.58-.17,1.08-.77,1.5-1.81a25.68,25.68,0,0,0,1.24-4.44L131,0h2.44l5.24,31c.24,1.44.46,2.54.65,3.3a6.23,6.23,0,0,0,.69,1.78,2.38,2.38,0,0,0,1.09.94v1.36Zm-5.92-15h6.44L131.64,5.44Z"/><path class="cls-1" d="M165.32,1.8a3.32,3.32,0,0,0-1,.62,2.15,2.15,0,0,0-.48.76,5.93,5.93,0,0,0-.26,1.37c0,.61-.08,1.56-.08,2.83v24c0,1.24,0,2.15.07,2.72a5.75,5.75,0,0,0,.23,1.36,2.07,2.07,0,0,0,.48.83,3.26,3.26,0,0,0,1,.67v1.36h-6.43V37a2.84,2.84,0,0,0,1.22-.89,3.31,3.31,0,0,0,.46-1.47,26.81,26.81,0,0,0,.13-3.22V20.77q0-4.2.07-8.49c0-2.85.1-4.81.16-5.87h-.26l-6.11,27.52h-1.77L147.12,6h-.26q.07,1.69.14,6.13c.05,3,.07,6,.07,9.14V31.4c0,1.24,0,2.15.07,2.72a6.32,6.32,0,0,0,.23,1.36,2.19,2.19,0,0,0,.48.83,3.26,3.26,0,0,0,1,.67v1.36h-5.62V37a2.87,2.87,0,0,0,1.28-1,3.74,3.74,0,0,0,.42-1.54c.07-.66.1-1.68.1-3.05v-24c0-1.27,0-2.2-.07-2.79a6,6,0,0,0-.26-1.36,2,2,0,0,0-.47-.77,4.16,4.16,0,0,0-1-.66V.44h5.5l5.41,27,6-27h5.21Z"/><path class="cls-1" d="M170.45,29.71a18.16,18.16,0,0,0,.84,3.85,4.69,4.69,0,0,0,1.35,2.1,3.3,3.3,0,0,0,2.14.68,3,3,0,0,0,2.77-1.69,10.22,10.22,0,0,0,1-4.94,12.91,12.91,0,0,0-.4-3.5,8.2,8.2,0,0,0-1.31-2.67A19.65,19.65,0,0,0,174,20.63a18.18,18.18,0,0,1-2.85-3.15,11.8,11.8,0,0,1-1.57-3.35,14.45,14.45,0,0,1-.51-3.94,16.24,16.24,0,0,1,.81-5.4,7.65,7.65,0,0,1,2.37-3.54A5.6,5.6,0,0,1,175.86,0a11.55,11.55,0,0,1,2.29.22,13,13,0,0,1,2.8,1v7.5h-1.53a17.34,17.34,0,0,0-.89-3.81A4.36,4.36,0,0,0,177.27,3a3.08,3.08,0,0,0-1.88-.54,2.7,2.7,0,0,0-1.8.67,4.4,4.4,0,0,0-1.26,2,10.17,10.17,0,0,0-.46,3.21,12.27,12.27,0,0,0,.39,3.33,8.2,8.2,0,0,0,1.23,2.52A15.91,15.91,0,0,0,176,16.82a21.09,21.09,0,0,1,3,3.31,12.25,12.25,0,0,1,1.7,3.48,15.33,15.33,0,0,1,.61,4.57,20.4,20.4,0,0,1-.51,4.93,9.71,9.71,0,0,1-1.41,3.27,5.22,5.22,0,0,1-2.16,1.83,6.57,6.57,0,0,1-2.75.57,13.56,13.56,0,0,1-5.58-1.47v-7.6Z"/><path class="cls-1" d="M200.85,31.4c0,1.07,0,1.88,0,2.41a8.64,8.64,0,0,0,.16,1.3,3.65,3.65,0,0,0,.26.79,1.75,1.75,0,0,0,.44.55,3.69,3.69,0,0,0,.89.53v1.36h-6.46V37a3,3,0,0,0,1.18-.86,3.16,3.16,0,0,0,.47-1.44A27.54,27.54,0,0,0,198,31.4V19.77H189.4V31.4c0,1.24,0,2.15.06,2.72a6.23,6.23,0,0,0,.24,1.36,2,2,0,0,0,.47.83,3.32,3.32,0,0,0,1,.67v1.36h-6.49V37A2.87,2.87,0,0,0,186,36a3.74,3.74,0,0,0,.42-1.54c.07-.66.1-1.68.1-3.05v-24c0-1.27,0-2.2-.07-2.79a6,6,0,0,0-.26-1.36,2,2,0,0,0-.47-.77,4.16,4.16,0,0,0-1-.66V.44h6.49V1.8a3.32,3.32,0,0,0-1,.62,2.15,2.15,0,0,0-.48.76,5.44,5.44,0,0,0-.26,1.37c-.06.61-.08,1.56-.08,2.83v9.83H198V7.38a26.49,26.49,0,0,0-.13-3.3,3.29,3.29,0,0,0-.44-1.36,3.06,3.06,0,0,0-1.21-.92V.44h6.46V1.8a2.94,2.94,0,0,0-1.21.88A3.34,3.34,0,0,0,201,4.14a30,30,0,0,0-.12,3.24Z"/><path class="cls-1" d="M220.79.44V8.83h-1.51c-.15-.91-.31-1.7-.48-2.39a13,13,0,0,0-.51-1.72,4.4,4.4,0,0,0-.57-1.11A1.58,1.58,0,0,0,217,3a3.15,3.15,0,0,0-1-.15h-4.87V17.43h3.29a1.55,1.55,0,0,0,1.07-.34,2.59,2.59,0,0,0,.64-1.18,17.31,17.31,0,0,0,.48-2.61H218V24h-1.45a16.24,16.24,0,0,0-.47-2.51,3,3,0,0,0-.63-1.21,1.48,1.48,0,0,0-1.09-.36h-3.29v16h4.79a2.67,2.67,0,0,0,1.22-.24,1.94,1.94,0,0,0,.81-.8,6.05,6.05,0,0,0,.6-1.49,16,16,0,0,0,.44-1.9c.12-.66.28-1.62.49-2.87H221l-.3,9.74H206.38V37a2.87,2.87,0,0,0,1.28-1,3.59,3.59,0,0,0,.42-1.54c.07-.66.1-1.68.1-3.05v-24c0-1.27,0-2.2-.07-2.79a5.46,5.46,0,0,0-.26-1.36,2,2,0,0,0-.47-.77,4.16,4.16,0,0,0-1-.66V.44Z"/><path class="cls-1" d="M224.52,38.34V37a3.93,3.93,0,0,0,1-.64,2.15,2.15,0,0,0,.48-.78,5.7,5.7,0,0,0,.24-1.36c.06-.59.08-1.52.08-2.8v-24c0-1.29,0-2.23-.08-2.81A5.25,5.25,0,0,0,226,3.22a2.19,2.19,0,0,0-.47-.76,4.37,4.37,0,0,0-1-.66V.44h6.75A8.91,8.91,0,0,1,236,1.6,9.18,9.18,0,0,1,239.18,5a18.13,18.13,0,0,1,1.91,5.59,43.74,43.74,0,0,1,.63,8,50.4,50.4,0,0,1-.59,8.26,22.93,22.93,0,0,1-1.73,6A11.52,11.52,0,0,1,237,36.29a7,7,0,0,1-2.75,1.58,14.84,14.84,0,0,1-4.13.47Zm4.7-2.58a11.59,11.59,0,0,0,1.82.11,6.35,6.35,0,0,0,2.31-.39,5.28,5.28,0,0,0,1.85-1.22,7.63,7.63,0,0,0,1.5-2.32,17.77,17.77,0,0,0,1.08-3.41,35.12,35.12,0,0,0,.61-4.29c.12-1.58.19-3.3.19-5.17a39.48,39.48,0,0,0-.9-9.26,11.31,11.31,0,0,0-2.55-5.28,5.27,5.27,0,0,0-3.92-1.67,18,18,0,0,0-2,.11Z"/></g></g></svg>