<svg  width="97" height="8" xmlns="http://www.w3.org/2000/svg" viewBox="0 0 97 8.22"><defs><style>.cls-1{fill:#c4c4c4;}</style></defs><g id="Layer_2" data-name="Layer 2"><g id="Layer_1-2" data-name="Layer 1"><path class="cls-1" d="M8.86.49a2.1,2.1,0,0,0-.4.11.52.52,0,0,0-.19.12.55.55,0,0,0-.1.23,1.93,1.93,0,0,0,0,.48v4a2.34,2.34,0,0,0,0,.45.61.61,0,0,0,.09.23.51.51,0,0,0,.2.14,2,2,0,0,0,.41.11V6.6H6.28V6.37a1.42,1.42,0,0,0,.49-.15A.4.4,0,0,0,7,6a1.8,1.8,0,0,0,0-.54V3.66c0-.46,0-.94,0-1.41s0-.81.06-1H7L4.54,5.86H3.83L1.55,1.19h-.1q0,.28.06,1c0,.5,0,1,0,1.53v1.7a2.34,2.34,0,0,0,0,.45.61.61,0,0,0,.09.23.51.51,0,0,0,.2.14,2,2,0,0,0,.41.11V6.6H0V6.37a1.43,1.43,0,0,0,.51-.16A.39.39,0,0,0,.68,6a2.16,2.16,0,0,0,0-.51v-4A2.59,2.59,0,0,0,.69,1,.49.49,0,0,0,.59.73.7.7,0,0,0,.4.6,2.83,2.83,0,0,0,0,.49V.27H2.21L4.38,4.78,6.77.27H8.86Z"/><path class="cls-1" d="M14.53,6.6V6.37a2.33,2.33,0,0,0,.46-.1.5.5,0,0,0,.23-.16.47.47,0,0,0,.07-.26,1.4,1.4,0,0,0,0-.34,3.43,3.43,0,0,0-.14-.42l-.23-.59H12L11.78,5a3.09,3.09,0,0,0-.21.52,1,1,0,0,0-.05.32.45.45,0,0,0,.19.41,1.2,1.2,0,0,0,.57.17V6.6H9.64V6.37a1.07,1.07,0,0,0,.61-.3,2.87,2.87,0,0,0,.49-.74L13.32.19h1l2.1,5.17a3.71,3.71,0,0,0,.27.56.84.84,0,0,0,.27.29,1.13,1.13,0,0,0,.44.16V6.6ZM12.15,4.09h2.59l-1.18-3Z"/><path class="cls-1" d="M19.52,6.17h2.23a2.37,2.37,0,0,0,.62-.06.88.88,0,0,0,.33-.18,1,1,0,0,0,.23-.34,6.23,6.23,0,0,0,.26-.69h.6V6.6H18.08V6.37L22.32.69H20.07a1.87,1.87,0,0,0-.38,0,.69.69,0,0,0-.25.1.87.87,0,0,0-.22.18,2.08,2.08,0,0,0-.22.33c-.07.14-.14.32-.22.53h-.61V.27h5.58V.49Z"/><path class="cls-1" d="M30.84.27v1.4h-.61a2.49,2.49,0,0,0-.19-.4,1.82,1.82,0,0,0-.2-.29A.69.69,0,0,0,29.6.8a.81.81,0,0,0-.3-.1,2.49,2.49,0,0,0-.41,0H26.94V3.11h1.32a1.27,1.27,0,0,0,.43-.06.55.55,0,0,0,.25-.2,1.4,1.4,0,0,0,.2-.44h.58V4.2h-.58A1.39,1.39,0,0,0,29,3.78a.61.61,0,0,0-.25-.21,1.25,1.25,0,0,0-.44-.06H26.94V6.19h1.92a2.19,2.19,0,0,0,.49,0A1,1,0,0,0,29.68,6a1.14,1.14,0,0,0,.24-.25,1.41,1.41,0,0,0,.17-.32c.05-.11.12-.27.2-.48h.61L30.78,6.6H25.06V6.37a1.6,1.6,0,0,0,.51-.16A.43.43,0,0,0,25.74,6a2.16,2.16,0,0,0,0-.51v-4a2.59,2.59,0,0,0,0-.47.61.61,0,0,0-.1-.23A.7.7,0,0,0,25.46.6a2.83,2.83,0,0,0-.4-.11V.27Z"/><path class="cls-1" d="M37.31,4.09c.15.18.27.35.37.49A4.58,4.58,0,0,1,38,5h.09c0-.18,0-.56-.06-1.12s0-1.07,0-1.52v-1A2.84,2.84,0,0,0,38,1a.55.55,0,0,0-.09-.23A.52.52,0,0,0,37.7.6a2.83,2.83,0,0,0-.4-.11V.27h2.23V.49a2.28,2.28,0,0,0-.39.11A.52.52,0,0,0,39,.72a.5.5,0,0,0-.11.22,2.77,2.77,0,0,0,0,.49v5.2H38L34.59,2.29c-.22-.27-.37-.46-.46-.59a3.9,3.9,0,0,1-.25-.36h-.11q0,.36.06,1.29c0,.62,0,1.24,0,1.86v1a2.34,2.34,0,0,0,0,.45.61.61,0,0,0,.09.23.47.47,0,0,0,.19.14,2.26,2.26,0,0,0,.41.11V6.6H32.32V6.37a1.6,1.6,0,0,0,.51-.16A.43.43,0,0,0,33,6a2.16,2.16,0,0,0,0-.51v-4A2.59,2.59,0,0,0,33,1a.61.61,0,0,0-.1-.23A.7.7,0,0,0,32.72.6a2.83,2.83,0,0,0-.4-.11V.27h1.93Z"/><path class="cls-1" d="M47.77,6.09a2.22,2.22,0,0,1-.19,1,1.61,1.61,0,0,1-.66.66,4.31,4.31,0,0,1-1.29.46l-.2-.41a2.85,2.85,0,0,0,.77-.31.88.88,0,0,0,.32-.4,2,2,0,0,0,.09-.65V1.23a2.14,2.14,0,0,0,0-.55.52.52,0,0,0-.18-.23A1.67,1.67,0,0,0,45.89.3V.07H48.5V.3a3.77,3.77,0,0,0-.4.1.7.7,0,0,0-.19.13.45.45,0,0,0-.1.23,1.84,1.84,0,0,0,0,.47Z"/><path class="cls-1" d="M53.79,6.4V6.18a3.07,3.07,0,0,0,.46-.1.5.5,0,0,0,.23-.16.45.45,0,0,0,.07-.27,1.08,1.08,0,0,0,0-.34,3.34,3.34,0,0,0-.14-.41l-.23-.6H51.25L51,4.76a3.09,3.09,0,0,0-.21.52,1.32,1.32,0,0,0,0,.32A.47.47,0,0,0,51,6a1.38,1.38,0,0,0,.58.17V6.4H48.9V6.18a1,1,0,0,0,.61-.3,3.24,3.24,0,0,0,.5-.75L52.58,0h1l2.11,5.17a2.87,2.87,0,0,0,.26.55.88.88,0,0,0,.27.3,1.4,1.4,0,0,0,.44.16V6.4ZM51.42,3.9H54l-1.17-3Z"/><path class="cls-1" d="M66.34.3,66,.4a.57.57,0,0,0-.19.13.45.45,0,0,0-.11.23,2.67,2.67,0,0,0,0,.47v4c0,.2,0,.35,0,.45a.49.49,0,0,0,.1.23.49.49,0,0,0,.19.14,3.07,3.07,0,0,0,.41.11V6.4H63.76V6.18A1.91,1.91,0,0,0,64.25,6a.48.48,0,0,0,.19-.25,2.07,2.07,0,0,0,0-.53V3.47c0-.47,0-.94,0-1.42a9.74,9.74,0,0,1,.07-1h-.11L62,5.67h-.71L59,1h-.11q0,.28.06,1t0,1.53v1.7a2.49,2.49,0,0,0,0,.45.4.4,0,0,0,.09.23.59.59,0,0,0,.19.14,3.07,3.07,0,0,0,.41.11V6.4H57.48V6.18A1.54,1.54,0,0,0,58,6a.45.45,0,0,0,.17-.25,3.08,3.08,0,0,0,0-.51v-4a2.46,2.46,0,0,0,0-.46.45.45,0,0,0-.11-.23.49.49,0,0,0-.18-.13A3.07,3.07,0,0,0,57.48.3V.07h2.21l2.17,4.52L64.25.07h2.09Z"/><path class="cls-1" d="M68.4,5a1.73,1.73,0,0,0,.33.65,1.41,1.41,0,0,0,.55.35,2.9,2.9,0,0,0,.86.11,1.86,1.86,0,0,0,1.11-.28A1,1,0,0,0,71.63,5a1,1,0,0,0-.16-.58A1.48,1.48,0,0,0,71,3.93a7.63,7.63,0,0,0-1.11-.48,6.71,6.71,0,0,1-1.15-.53,2.06,2.06,0,0,1-.63-.56,1.12,1.12,0,0,1-.2-.66,1.34,1.34,0,0,1,.32-.9,2,2,0,0,1,.95-.59A4.55,4.55,0,0,1,70.57,0c.31,0,.62,0,.92,0A11.06,11.06,0,0,1,72.61.2V1.46H72a1.68,1.68,0,0,0-.36-.64A1.14,1.14,0,0,0,71.13.5a2.56,2.56,0,0,0-.75-.09,2.27,2.27,0,0,0-.72.11,1.24,1.24,0,0,0-.51.34A.84.84,0,0,0,69,1.4a.9.9,0,0,0,.16.55,1.49,1.49,0,0,0,.49.42,6.19,6.19,0,0,0,1,.44,8.44,8.44,0,0,1,1.23.55,2.47,2.47,0,0,1,.68.58,1.28,1.28,0,0,1,.24.77,1.61,1.61,0,0,1-.2.82,1.67,1.67,0,0,1-.57.55,2.62,2.62,0,0,1-.87.3,5.35,5.35,0,0,1-1.1.1,11.51,11.51,0,0,1-2.24-.25V5Z"/><path class="cls-1" d="M80.6,5.25a2.19,2.19,0,0,0,0,.4.53.53,0,0,0,.06.21.5.5,0,0,0,.1.14.74.74,0,0,0,.18.09,2.13,2.13,0,0,0,.35.09V6.4H78.72V6.18A1.59,1.59,0,0,0,79.2,6a.42.42,0,0,0,.19-.24,2.22,2.22,0,0,0,0-.54V3.3H76v2a2.49,2.49,0,0,0,0,.45.61.61,0,0,0,.09.23.72.72,0,0,0,.19.14l.42.11V6.4H74.12V6.18A1.39,1.39,0,0,0,74.63,6a.37.37,0,0,0,.17-.25,2.17,2.17,0,0,0,0-.51v-4a2.26,2.26,0,0,0,0-.46.45.45,0,0,0-.1-.23.53.53,0,0,0-.19-.13,2.83,2.83,0,0,0-.4-.11V.07h2.61V.3a3.21,3.21,0,0,0-.4.1.7.7,0,0,0-.19.13.45.45,0,0,0-.1.23,1.84,1.84,0,0,0,0,.47V2.88h3.44V1.23a2.14,2.14,0,0,0,0-.55.52.52,0,0,0-.18-.23A1.67,1.67,0,0,0,78.72.3V.07h2.59V.3a1.35,1.35,0,0,0-.48.15.37.37,0,0,0-.18.24,1.8,1.8,0,0,0-.05.54Z"/><path class="cls-1" d="M88.6.07v1.4H88a2.36,2.36,0,0,0-.19-.39,1.34,1.34,0,0,0-.2-.29A1,1,0,0,0,87.37.6a1,1,0,0,0-.3-.09,2.58,2.58,0,0,0-.42,0h-2V2.91H86a1.23,1.23,0,0,0,.43-.06.47.47,0,0,0,.25-.19,1.52,1.52,0,0,0,.2-.44h.58V4H86.9a1.67,1.67,0,0,0-.19-.42.67.67,0,0,0-.25-.2A1.22,1.22,0,0,0,86,3.32H84.7V6h1.92a3,3,0,0,0,.49,0,.88.88,0,0,0,.57-.39,1.92,1.92,0,0,0,.18-.31l.19-.48h.61L88.54,6.4H82.82V6.18A1.55,1.55,0,0,0,83.33,6a.41.41,0,0,0,.17-.25,2.27,2.27,0,0,0,0-.51v-4a2.46,2.46,0,0,0,0-.46.45.45,0,0,0-.1-.23.53.53,0,0,0-.19-.13,2.83,2.83,0,0,0-.4-.11V.07Z"/><path class="cls-1" d="M90.1,6.4V6.18a3.59,3.59,0,0,0,.41-.11.53.53,0,0,0,.19-.13.55.55,0,0,0,.1-.23,2.54,2.54,0,0,0,0-.46v-4a2.67,2.67,0,0,0,0-.47.46.46,0,0,0-.11-.22.49.49,0,0,0-.18-.13A3.07,3.07,0,0,0,90.1.3V.07h2.71a7.71,7.71,0,0,1,1.91.2A3.65,3.65,0,0,1,96,.83a2.48,2.48,0,0,1,.77.94A3.19,3.19,0,0,1,97,3.1a3.62,3.62,0,0,1-.24,1.38,2.64,2.64,0,0,1-.69,1,3.14,3.14,0,0,1-1,.58,4.54,4.54,0,0,1-1.1.27,14.6,14.6,0,0,1-1.65.07ZM92,6a7.21,7.21,0,0,0,.73,0,6.41,6.41,0,0,0,.93-.06,3.2,3.2,0,0,0,.74-.21,1.86,1.86,0,0,0,.6-.38,2.18,2.18,0,0,0,.44-.57,2.77,2.77,0,0,0,.24-.72,4.57,4.57,0,0,0,.08-.86,3,3,0,0,0-.36-1.55,2.14,2.14,0,0,0-1-.88A4,4,0,0,0,92.78.48c-.28,0-.54,0-.8,0Z"/></g></g></svg>