<svg  width="178" height="29" xmlns="http://www.w3.org/2000/svg" viewBox="0 0 484.93 413.04"><defs><style>.cls-1{fill:#f0f0f0;}</style></defs><g id="Layer_2" data-name="Layer 2"><g id="Layer_1-2" data-name="Layer 1"><polygon class="cls-1" points="0 206.52 0 3.83 35.95 3.83 40.54 46.66 40.54 206.52 0 206.52"/><path class="cls-1" d="M76.11,206.52V47.81Q76.11,30.59,60,30.6q-19.5,0-19.5,27.53L28.68,29.07h13Q44,0,76.49,0q15.87,0,25,10.9T110.53,44V206.52Z"/><path class="cls-1" d="M146.1,206.52V51.63q0-21-15.69-21-19.89,0-19.88,27.53L96.76,29.07h15.68a31.89,31.89,0,0,1,9.47-20.46Q130.42,0,146.48,0q21,0,30.59,11.28t9.56,36.53V206.52Z"/><path class="cls-1" d="M236.72,209.39q-31.74,0-49.14-15.3t-17.4-43.21q0-32.13,24-49.34T262,84.33a213.63,213.63,0,0,1,32.41,2.2,117.35,117.35,0,0,1,25.34,6.6l-8.42,27.53a138.87,138.87,0,0,0-25.05-3.34q-12.24-.48-25.05-.48-52.77,0-52.78,32.12,0,13.39,9.09,20.65t25.72,7.27q18.93,0,31.64-6.5t19-16.64a38.9,38.9,0,0,0,6.31-20.84V110.72l11.86,52H296l6.51-6.12q0,17.59-8.13,29.35t-22.85,17.6Q256.8,209.38,236.72,209.39Z"/><path class="cls-1" d="M308.24,207.48l-2.67-60-5.36-16.82V78.21q0-20.26-14.25-29.73T243.61,38.24L195,36.91,198.86,1l40.92.57q50.29.76,74.68,21.7t24.38,61.1v84.52l34.42,4.21v32.5Z"/><rect class="cls-1" x="307.29" y="1.91" width="162.92" height="35.95"/><polygon class="cls-1" points="335.21 191.99 307.29 168.66 442.29 15.3 470.21 37.86 335.21 191.99"/><rect class="cls-1" x="307.29" y="168.66" width="166.75" height="35.95"/><path class="cls-1" d="M257.33,413q-55.37,0-85.5-27.25t-30.13-78.3q0-49.73,25.53-77.26t72.12-27.53q43.92,0,67.93,24.86t24,72.28a259.67,259.67,0,0,1-1.22,26h-152v-31h114q0-27.35-13.89-42t-38.41-14.63q-27.58,0-42.8,17.6t-15.22,49.71q0,35.19,20.94,53.55t59.55,18.35A242.51,242.51,0,0,0,288.79,376q13.06-1.44,26.56-3.92l5.31,35.57a305.45,305.45,0,0,1-35.14,4.4Q269.59,413,257.33,413Z"/><polygon class="cls-1" points="319.72 411.13 319.72 208.43 356.43 208.43 360.26 251.27 360.26 411.13 319.72 411.13"/><path class="cls-1" d="M444.4,411.13V279.19q0-18.36-9.57-28.3t-26.77-9.95q-47.81,0-47.8,56.22l-11.86-52h15.68q1.73-20.46,14.92-30.5t38.62-10q32.13,0,49.72,19.5t17.59,55.08V411.13Z"/></g></g></svg>
