<svg xmlns="http://www.w3.org/2000/svg" viewBox="0 0 86.37 6.47"><defs><style>.cls-1{fill:#c4c4c4;}</style></defs><g id="Layer_2" data-name="Layer 2"><g id="Layer_1-2" data-name="Layer 1"><path class="cls-1" d="M.63,5A1.61,1.61,0,0,0,1,5.6,1.21,1.21,0,0,0,1.52,6a2.74,2.74,0,0,0,.88.11,1.93,1.93,0,0,0,1.13-.28A.94.94,0,0,0,3.92,5a1,1,0,0,0-.16-.58,1.68,1.68,0,0,0-.54-.44,7.57,7.57,0,0,0-1.13-.48A7.5,7.5,0,0,1,.92,2.94a2.06,2.06,0,0,1-.63-.56,1.12,1.12,0,0,1-.21-.65A1.32,1.32,0,0,1,.41.83a2.16,2.16,0,0,1,1-.59A5.07,5.07,0,0,1,2.84,0q.48,0,.93,0A11.35,11.35,0,0,1,4.91.24V1.48H4.29A1.87,1.87,0,0,0,3.93.85,1.21,1.21,0,0,0,3.41.54,2.71,2.71,0,0,0,2.64.45a2.11,2.11,0,0,0-.73.11A1,1,0,0,0,1.4.89a.78.78,0,0,0-.19.53A1,1,0,0,0,1.37,2a1.41,1.41,0,0,0,.5.41,6.57,6.57,0,0,0,1,.44,7.65,7.65,0,0,1,1.24.55,2.26,2.26,0,0,1,.7.57,1.26,1.26,0,0,1,.25.76,1.51,1.51,0,0,1-.21.82,1.59,1.59,0,0,1-.58.54,2.68,2.68,0,0,1-.88.3,5.62,5.62,0,0,1-1.12.1A12.64,12.64,0,0,1,0,6.23V5Z"/><path class="cls-1" d="M10.58,6.4V6.17a2.3,2.3,0,0,0,.47-.1.45.45,0,0,0,.23-.16.4.4,0,0,0,.08-.26,1.47,1.47,0,0,0,0-.34,3.54,3.54,0,0,0-.15-.41l-.23-.59H8l-.22.45a3.09,3.09,0,0,0-.21.52,1.24,1.24,0,0,0-.05.31A.45.45,0,0,0,7.71,6a1.34,1.34,0,0,0,.59.17V6.4H5.61V6.17a1.07,1.07,0,0,0,.62-.3,2.87,2.87,0,0,0,.5-.74L9.36,0h1l2.14,5.13a4,4,0,0,0,.27.55A1,1,0,0,0,13,6a1.19,1.19,0,0,0,.44.16V6.4ZM8.17,3.91H10.8L9.6.94Z"/><path class="cls-1" d="M14.36,6.4V6.17a2,2,0,0,0,.41-.11.4.4,0,0,0,.3-.35,2.59,2.59,0,0,0,0-.47v-4a2.67,2.67,0,0,0,0-.47A.56.56,0,0,0,15,.57a.77.77,0,0,0-.2-.13,3,3,0,0,0-.41-.1V.11h2.76A8,8,0,0,1,19.06.3a3.68,3.68,0,0,1,1.28.57,2.23,2.23,0,0,1,.78.92,3,3,0,0,1,.26,1.33,3.64,3.64,0,0,1-.24,1.37,2.61,2.61,0,0,1-.71,1,3.39,3.39,0,0,1-1,.57,4.28,4.28,0,0,1-1.12.27,14.69,14.69,0,0,1-1.68.08ZM16.28,6,17,6A6.45,6.45,0,0,0,18,5.92a3.38,3.38,0,0,0,.76-.2,1.87,1.87,0,0,0,.61-.39,2,2,0,0,0,.44-.56A2.72,2.72,0,0,0,20,4.06a4.57,4.57,0,0,0,.08-.86,2.9,2.9,0,0,0-.37-1.54,2.12,2.12,0,0,0-1-.87,4.09,4.09,0,0,0-1.6-.28l-.81,0Z"/><path class="cls-1" d="M26.76,6.4V6.17a2.3,2.3,0,0,0,.47-.1.5.5,0,0,0,.23-.16.4.4,0,0,0,.08-.26,1.47,1.47,0,0,0-.05-.34c0-.12-.09-.26-.15-.41l-.23-.59H24.18L24,4.76a3.09,3.09,0,0,0-.21.52.91.91,0,0,0-.05.31.45.45,0,0,0,.19.41,1.3,1.3,0,0,0,.59.17V6.4H21.79V6.17a1,1,0,0,0,.61-.3,2.65,2.65,0,0,0,.51-.74L25.53,0h1l2.14,5.13a4,4,0,0,0,.27.55.86.86,0,0,0,.28.29,1.07,1.07,0,0,0,.44.16V6.4ZM24.35,3.91H27l-1.2-3Z"/><path class="cls-1" d="M39.53.34a1.51,1.51,0,0,0-.4.1.56.56,0,0,0-.2.12.55.55,0,0,0-.1.23,1.84,1.84,0,0,0,0,.47v4a2.54,2.54,0,0,0,0,.46.45.45,0,0,0,.1.22.41.41,0,0,0,.19.14,2.42,2.42,0,0,0,.42.11V6.4H36.9V6.17A1.41,1.41,0,0,0,37.4,6a.39.39,0,0,0,.19-.24,2.22,2.22,0,0,0,0-.54V3.48q0-.69,0-1.41a9.72,9.72,0,0,1,.07-1h-.11L35.14,5.66h-.73L32.1,1H32c0,.18,0,.52.06,1s0,1,0,1.52V5.24a2.54,2.54,0,0,0,0,.46.56.56,0,0,0,.09.22.51.51,0,0,0,.2.14,2,2,0,0,0,.41.11V6.4H30.52V6.17A1.59,1.59,0,0,0,31,6a.39.39,0,0,0,.17-.26,2.16,2.16,0,0,0,0-.51v-4a2.54,2.54,0,0,0,0-.46.49.49,0,0,0-.1-.23.7.7,0,0,0-.19-.13,3.5,3.5,0,0,0-.41-.1V.11h2.24L35,4.59,37.4.11h2.13Z"/><path class="cls-1" d="M49.18,2.94h.23a2.2,2.2,0,0,0,.53-.06,2.55,2.55,0,0,0,.55-.21,9,9,0,0,0,.91-.57c.5-.33.83-.57,1-.72a2,2,0,0,0,.46-.44A.48.48,0,0,0,53,.68a.27.27,0,0,0-.18-.27A1.21,1.21,0,0,0,52.3.3V.07h3.35V.3a2.11,2.11,0,0,0-.48.12,2.32,2.32,0,0,0-.49.22c-.17.09-.41.25-.73.46L51.36,2.86l2.8,2.45a6.84,6.84,0,0,0,.7.55,2.32,2.32,0,0,0,.49.22,2.5,2.5,0,0,0,.49.1V6.4h-3.4V6.18a1.29,1.29,0,0,0,.42-.07C53,6.08,53,6,53,6a.35.35,0,0,0-.09-.2,1.81,1.81,0,0,0-.28-.29L50.83,3.86a3.66,3.66,0,0,0-.47-.38,1.07,1.07,0,0,0-.31-.13,1.83,1.83,0,0,0-.46-.05h-.4v2a2.49,2.49,0,0,0,0,.45.42.42,0,0,0,.12.23.7.7,0,0,0,.23.14c.11,0,.28.07.52.11V6.4H46.85V6.18A2.1,2.1,0,0,0,47.48,6a.45.45,0,0,0,.22-.25,2.17,2.17,0,0,0,0-.51v-4a2.26,2.26,0,0,0,0-.46.47.47,0,0,0-.13-.23.73.73,0,0,0-.23-.13,4.64,4.64,0,0,0-.5-.11V.07h3.24V.3L49.6.4a.89.89,0,0,0-.24.13.47.47,0,0,0-.13.23,1.84,1.84,0,0,0,0,.47Z"/><path class="cls-1" d="M64.83,5.25a2,2,0,0,0,0,.4.52.52,0,0,0,.07.21.47.47,0,0,0,.14.14l.21.09a3.49,3.49,0,0,0,.45.09V6.4H62.5V6.18A2.31,2.31,0,0,0,63.09,6a.41.41,0,0,0,.24-.24,1.73,1.73,0,0,0,.06-.54V3.3H59.11v2a1.72,1.72,0,0,0,0,.45.49.49,0,0,0,.11.23.89.89,0,0,0,.24.14l.51.11V6.4H56.77V6.18A2.19,2.19,0,0,0,57.41,6a.4.4,0,0,0,.21-.25,1.74,1.74,0,0,0,.05-.51v-4a1.71,1.71,0,0,0,0-.46.39.39,0,0,0-.12-.23.68.68,0,0,0-.24-.13,4.13,4.13,0,0,0-.5-.11V.07H60V.3l-.49.1a.7.7,0,0,0-.23.13.48.48,0,0,0-.14.23,2.47,2.47,0,0,0,0,.47V2.88h4.28V1.23a1.68,1.68,0,0,0-.06-.55.49.49,0,0,0-.22-.23A2.62,2.62,0,0,0,62.5.3V.07h3.23V.3a2,2,0,0,0-.6.15.39.39,0,0,0-.23.24,1.43,1.43,0,0,0-.07.54Z"/><path class="cls-1" d="M72.8,6.4V6.18a5.26,5.26,0,0,0,.57-.1.58.58,0,0,0,.28-.16.4.4,0,0,0,.09-.27,1.11,1.11,0,0,0-.06-.34,4,4,0,0,0-.17-.41l-.29-.6H69.63l-.26.46a3.49,3.49,0,0,0-.26.52,1,1,0,0,0-.06.32.44.44,0,0,0,.23.41,2.11,2.11,0,0,0,.72.17V6.4H66.71V6.18a1.39,1.39,0,0,0,.75-.3,2.85,2.85,0,0,0,.62-.75L71.3,0h1.21l2.62,5.17a3,3,0,0,0,.33.55,1,1,0,0,0,.34.3,1.91,1.91,0,0,0,.55.16V6.4Zm-3-2.5h3.22L71.6.91Z"/><path class="cls-1" d="M83.61,3.9l.47.48.38.47h.1c0-.19,0-.56-.07-1.12s0-1.07,0-1.52v-1a2.46,2.46,0,0,0,0-.46.38.38,0,0,0-.11-.23A.58.58,0,0,0,84.1.41,4.13,4.13,0,0,0,83.6.3V.07h2.77V.3l-.49.1a.71.71,0,0,0-.23.12.47.47,0,0,0-.13.23,1.79,1.79,0,0,0,0,.48v5.2h-1L80.22,2.1c-.27-.27-.46-.46-.57-.59s-.22-.24-.31-.36H79.2a9.65,9.65,0,0,1,.08,1.29c0,.62,0,1.24,0,1.86v1a2.31,2.31,0,0,0,0,.45.49.49,0,0,0,.11.23.89.89,0,0,0,.24.14c.11,0,.28.07.52.11V6.4H77.39V6.18A2.1,2.1,0,0,0,78,6a.45.45,0,0,0,.22-.25,2.17,2.17,0,0,0,0-.51v-4a2.26,2.26,0,0,0,0-.46.47.47,0,0,0-.13-.23A.73.73,0,0,0,77.9.41,4.42,4.42,0,0,0,77.39.3V.07H79.8Z"/></g></g></svg>