<svg xmlns="http://www.w3.org/2000/svg" viewBox="0 0 513.52 497.83"><defs><style>.cls-1{fill:#f0f0f0;}</style></defs><g id="Layer_2" data-name="Layer 2"><g id="Layer_1-2" data-name="Layer 1"><path class="cls-1" d="M211.32,279.82q-31.74,0-49.14-15.3t-17.4-43.21q0-32.13,24-49.34t67.79-17.21A214.93,214.93,0,0,1,269,157a117.94,117.94,0,0,1,25.34,6.6L285.9,191.1a138.9,138.9,0,0,0-25-3.35q-12.24-.48-25.05-.48Q183,187.27,183,219.4q0,13.38,9.09,20.65t25.72,7.26q18.93,0,31.64-6.5t19-16.63a39,39,0,0,0,6.31-20.85V181.15l11.86,52H270.6l6.51-6.11q0,17.59-8.13,29.35T246.13,274Q231.4,279.83,211.32,279.82Z"/><path class="cls-1" d="M282.84,277.91l-2.67-60L274.81,201v-52.4q0-20.26-14.25-29.73t-42.35-10.23l-48.57-1.34,3.82-35.95,40.92.57q50.3.77,74.68,21.71t24.38,61.09v84.52l34.42,4.21V276Z"/><path class="cls-1" d="M68.8,279.72q-22.8,0-39.06-1.34A215.61,215.61,0,0,1,0,274l4.56-36.68q20,3.06,35.26,4.58t29,1.53q30.6,0,44.38-6T127,218.2q0-9.16-4.84-13.65t-14.92-7L60.82,185.73Q31,178.09,17,166.82T3,132.62Q3,99.38,28.41,84.48t81.83-14.9q14.63,0,27.27.86t26,3l-4.19,35.15q-15.39-1.53-27.18-2.1t-23-.57q-33.84,0-49,5.82t-15.21,19q0,8.79,6.28,12.71t19.19,7.16l37.26,9.17q31.74,7.63,46.47,20.44t14.73,37.25q0,32.67-23.76,47.47T68.8,279.72Z"/><path class="cls-1" d="M393.38,273.58q-48.72,0-73.89-24.66t-25.17-72.54q0-49.66,25.17-75.23t73.89-25.56q27.87,0,45.32,10.08t20.49,28.08h19.2L463.87,168.1q0-29.5-15.1-44.81T404.39,108q-30,0-45.44,17.28T343.5,176.38q0,32,15.45,48.42t45.44,16.38q29.26,0,44.38-15.3t15.1-44.82l16.87,54.36H459.19q-2.34,18-19.79,28.08T393.38,273.58Zm75.65-1.8-5.16-37.44V0h49.65V270Z"/><path class="cls-1" d="M180.28,497.83q-35.62,0-55.16-17.17t-19.52-48.5q0-36,26.93-55.36t76.07-19.32A241.1,241.1,0,0,1,245,360a132.12,132.12,0,0,1,28.43,7.41L264,398.26a156.52,156.52,0,0,0-28.11-3.76q-13.74-.53-28.12-.54-59.22,0-59.22,36.06,0,15,10.19,23.17t28.86,8.16q21.24,0,35.52-7.3t21.35-18.67A43.72,43.72,0,0,0,251.52,412V387.1l13.31,58.37h-18l7.3-6.87q0,19.75-9.12,32.94t-25.65,19.74Q202.8,497.84,180.28,497.83Zm80.25-2.15-3-67.38-6-18.88v-58.8q0-22.75-16-33.37T188,305.77l-54.51-1.51,4.3-40.34,45.92.64q56.43.87,83.8,24.36t27.36,68.56v94.86l38.63,4.72v36.48Z"/><path class="cls-1" d="M296.88,493.11V272.8h41.73l5.33,46.55V493.11Zm88.35,0V320.6q0-18.71-18.65-18.71-22.63,0-22.64,29.93l-13.76-31.59h15.09q2.67-31.59,40.4-31.59,18.42,0,29,11.85t10.54,35.95V493.11Zm81.23,0V324.76q0-22.86-18.2-22.87-23.08,0-23.08,29.93l-16-31.59h18.2a33.81,33.81,0,0,1,11-22.24q9.87-9.35,28.52-9.35,24.42,0,35.51,12.26t11.1,39.7V493.11Z"/></g></g></svg>